<svg xmlns="http://www.w3.org/2000/svg" viewBox="0 0 300 105" fill="none">
  <path d="M112.55 0.00500488H21.7C14.655 0.00500488 10.14 7.49498 13.44 13.725L22.53 30.935H6.06C2.715 30.935 0 33.65 0 36.995C0 37.98 0.234977 38.95 0.694977 39.815L29.92 95.14C31.485 98.09 35.15 99.22 38.105 97.655C39.18 97.085 40.06 96.215 40.62 95.14L48.56 80.19L58.52 99.04C62.02 105.67 71.525 105.68 75.035 99.06L120.585 13.375C123.805 7.315 119.41 0 112.56 0L112.55 0.00500488ZM71.745 36.625L52.115 73.58C51.075 75.55 48.625 76.295 46.66 75.255C45.945 74.875 45.365 74.295 44.985 73.58L25.545 36.78C24.505 34.81 25.255 32.375 27.22 31.335C27.8 31.035 28.44 30.865 29.1 30.865H68.285C70.455 30.865 72.21 32.62 72.21 34.79C72.21 35.425 72.055 36.065 71.75 36.625H71.745ZM205.68 39.765H195.74V73.825C195.74 74.475 195.215 75 194.565 75H186.895C186.245 75 185.72 74.475 185.72 73.825V39.765H175.725C175.11 39.785 174.585 39.305 174.55 38.69V32.63C174.55 32.015 175.065 31.51 175.69 31.51H205.665C206.315 31.475 206.86 31.98 206.895 32.615V38.64C206.86 39.29 206.315 39.78 205.665 39.76M237.575 74.755C235.53 75.045 232.085 75.515 225.77 75.515C218.225 75.515 211.56 73.58 211.56 62.935V43.5C211.56 32.855 218.29 30.975 225.835 30.975C232.15 30.975 235.54 31.445 237.585 31.735C238.4 31.845 238.76 32.15 238.76 32.91V38.355C238.76 39.005 238.235 39.53 237.585 39.53H225.25C222.5 39.53 221.505 40.47 221.505 43.51V48.83H237.115C237.765 48.83 238.29 49.355 238.29 50.005V55.56C238.29 56.21 237.765 56.735 237.115 56.735H221.505V62.94C221.505 65.98 222.5 66.92 225.25 66.92H237.585C238.235 66.92 238.76 67.445 238.76 68.095V73.54C238.76 74.29 238.415 74.645 237.585 74.76M281.715 74.99H272.41C271.65 74.99 271.305 74.745 270.89 74.12L262.83 61.315L255.52 73.84C255.105 74.545 254.705 75.015 254.065 75.015H245.41C244.83 75.015 244.525 74.67 244.525 74.255C244.525 74.11 244.58 73.975 244.64 73.84L257.305 52.705L244.505 32.635C244.435 32.525 244.405 32.41 244.39 32.29C244.435 31.845 244.815 31.505 245.265 31.53H254.68C255.315 31.53 255.785 32.11 256.135 32.635L263.615 44.455L270.86 32.635C271.15 32.11 271.675 31.53 272.315 31.53H280.97C281.42 31.51 281.81 31.845 281.855 32.29C281.855 32.415 281.8 32.535 281.73 32.635L268.985 52.83L282.265 73.84C282.365 74.02 282.435 74.22 282.445 74.42C282.445 74.755 282.155 74.99 281.685 74.99M168.855 31.625C168.92 31.625 168.99 31.625 169.055 31.645C169.535 31.755 169.85 32.24 169.735 32.73C169.735 32.73 159.595 68.665 159.425 69.15C158.04 73.33 154.485 75.49 150.415 75.49C146.145 75.49 142.78 73.435 141.395 69.14C141.285 68.78 130.91 32.735 130.91 32.735C130.9 32.67 130.89 32.6 130.89 32.535C130.89 32.03 131.29 31.63 131.795 31.63H140.16C140.595 31.63 140.965 31.93 141.045 32.355L149.54 63.795C149.665 64.43 149.83 64.665 150.355 64.665C150.88 64.665 151.06 64.43 151.17 63.795L159.665 32.365C159.745 31.94 160.11 31.64 160.55 31.64H168.855V31.63V31.625Z" fill="#f61e64"/>
</svg>

